<svg xmlns="http://www.w3.org/2000/svg" width="339" height="123" fill="none" viewBox="0 0 339 123"><g filter="url(#filter0_dd_2398_3280)"><rect width="327" height="31" x="6" y="2" fill="#F9FAFB" rx="4"/><rect width="36" height="7" x="18" y="14" fill="#9CA3AF" rx="3"/><rect width="28.875" height="6" x="175.5" y="14.5" fill="#D1D5DB" rx="2"/><rect width="28.875" height="6" x="214.375" y="14.5" fill="#D1D5DB" rx="2"/><rect width="28.875" height="6" x="253.25" y="14.5" fill="#D1D5DB" rx="2"/><rect width="28.875" height="6" x="292.125" y="14.5" fill="#D1D5DB" rx="2"/></g><g filter="url(#filter1_dd_2398_3280)"><rect width="327" height="59" x="6" y="54" fill="#F9FAFB" rx="4"/><rect width="36" height="7" x="18" y="66" fill="#9CA3AF" rx="3"/><rect width="28.875" height="6" x="175.5" y="66.5" fill="#D1D5DB" rx="2"/><rect width="28.875" height="6" x="214.375" y="66.5" fill="#D1D5DB" rx="2"/><rect width="28.875" height="6" x="253.25" y="66.5" fill="#D1D5DB" rx="2"/><rect width="28.875" height="6" x="292.125" y="66.5" fill="#D1D5DB" rx="2"/><line x1="18" x2="321" y1="84.5" y2="84.5" stroke="#E5E7EB"/><rect width="127" height="4" x="106" y="97" fill="#D1D5DB" rx="2"/></g><defs><filter id="filter0_dd_2398_3280" width="339" height="43" x="0" y="0" color-interpolation-filters="sRGB" filterUnits="userSpaceOnUse"><feFlood flood-opacity="0" result="BackgroundImageFix"/><feColorMatrix in="SourceAlpha" result="hardAlpha" type="matrix" values="0 0 0 0 0 0 0 0 0 0 0 0 0 0 0 0 0 0 127 0"/><feOffset dy="4"/><feGaussianBlur stdDeviation="3"/><feColorMatrix type="matrix" values="0 0 0 0 0 0 0 0 0 0 0 0 0 0 0 0 0 0 0.1 0"/><feBlend in2="BackgroundImageFix" mode="normal" result="effect1_dropShadow_2398_3280"/><feColorMatrix in="SourceAlpha" result="hardAlpha" type="matrix" values="0 0 0 0 0 0 0 0 0 0 0 0 0 0 0 0 0 0 127 0"/><feOffset dy="2"/><feGaussianBlur stdDeviation="2"/><feColorMatrix type="matrix" values="0 0 0 0 0 0 0 0 0 0 0 0 0 0 0 0 0 0 0.06 0"/><feBlend in2="effect1_dropShadow_2398_3280" mode="normal" result="effect2_dropShadow_2398_3280"/><feBlend in="SourceGraphic" in2="effect2_dropShadow_2398_3280" mode="normal" result="shape"/></filter><filter id="filter1_dd_2398_3280" width="339" height="71" x="0" y="52" color-interpolation-filters="sRGB" filterUnits="userSpaceOnUse"><feFlood flood-opacity="0" result="BackgroundImageFix"/><feColorMatrix in="SourceAlpha" result="hardAlpha" type="matrix" values="0 0 0 0 0 0 0 0 0 0 0 0 0 0 0 0 0 0 127 0"/><feOffset dy="4"/><feGaussianBlur stdDeviation="3"/><feColorMatrix type="matrix" values="0 0 0 0 0 0 0 0 0 0 0 0 0 0 0 0 0 0 0.1 0"/><feBlend in2="BackgroundImageFix" mode="normal" result="effect1_dropShadow_2398_3280"/><feColorMatrix in="SourceAlpha" result="hardAlpha" type="matrix" values="0 0 0 0 0 0 0 0 0 0 0 0 0 0 0 0 0 0 127 0"/><feOffset dy="2"/><feGaussianBlur stdDeviation="2"/><feColorMatrix type="matrix" values="0 0 0 0 0 0 0 0 0 0 0 0 0 0 0 0 0 0 0.06 0"/><feBlend in2="effect1_dropShadow_2398_3280" mode="normal" result="effect2_dropShadow_2398_3280"/><feBlend in="SourceGraphic" in2="effect2_dropShadow_2398_3280" mode="normal" result="shape"/></filter></defs></svg>