<svg xmlns="http://www.w3.org/2000/svg" width="341" height="125" fill="none" viewBox="0 0 341 125"><g filter="url(#filter0_dd_2398_3279)"><rect width="327" height="31" x="7" y="3" fill="#374151" rx="4"/><rect width="36" height="7" x="19" y="15" fill="#9CA3AF" rx="3"/><rect width="28.875" height="6" x="176.5" y="15.5" fill="#6B7280" rx="2"/><rect width="28.875" height="6" x="215.375" y="15.5" fill="#6B7280" rx="2"/><rect width="28.875" height="6" x="254.25" y="15.5" fill="#6B7280" rx="2"/><rect width="28.875" height="6" x="293.125" y="15.5" fill="#6B7280" rx="2"/><rect width="328" height="32" x="6.5" y="2.5" stroke="#374151" rx="4.5"/></g><g filter="url(#filter1_dd_2398_3279)"><rect width="327" height="59" x="7" y="55" fill="#374151" rx="4"/><rect width="36" height="7" x="19" y="67" fill="#9CA3AF" rx="3"/><rect width="28.875" height="6" x="176.5" y="67.5" fill="#6B7280" rx="2"/><rect width="28.875" height="6" x="215.375" y="67.5" fill="#6B7280" rx="2"/><rect width="28.875" height="6" x="254.25" y="67.5" fill="#6B7280" rx="2"/><rect width="28.875" height="6" x="293.125" y="67.5" fill="#6B7280" rx="2"/><line x1="19" x2="322" y1="85.5" y2="85.5" stroke="#4B5563"/><rect width="127" height="4" x="107" y="98" fill="#6B7280" rx="2"/><rect width="328" height="60" x="6.5" y="54.5" stroke="#374151" rx="4.5"/></g><defs><filter id="filter0_dd_2398_3279" width="341" height="45" x="0" y="0" color-interpolation-filters="sRGB" filterUnits="userSpaceOnUse"><feFlood flood-opacity="0" result="BackgroundImageFix"/><feColorMatrix in="SourceAlpha" result="hardAlpha" type="matrix" values="0 0 0 0 0 0 0 0 0 0 0 0 0 0 0 0 0 0 127 0"/><feOffset dy="4"/><feGaussianBlur stdDeviation="3"/><feColorMatrix type="matrix" values="0 0 0 0 0 0 0 0 0 0 0 0 0 0 0 0 0 0 0.1 0"/><feBlend in2="BackgroundImageFix" mode="normal" result="effect1_dropShadow_2398_3279"/><feColorMatrix in="SourceAlpha" result="hardAlpha" type="matrix" values="0 0 0 0 0 0 0 0 0 0 0 0 0 0 0 0 0 0 127 0"/><feOffset dy="2"/><feGaussianBlur stdDeviation="2"/><feColorMatrix type="matrix" values="0 0 0 0 0 0 0 0 0 0 0 0 0 0 0 0 0 0 0.06 0"/><feBlend in2="effect1_dropShadow_2398_3279" mode="normal" result="effect2_dropShadow_2398_3279"/><feBlend in="SourceGraphic" in2="effect2_dropShadow_2398_3279" mode="normal" result="shape"/></filter><filter id="filter1_dd_2398_3279" width="341" height="73" x="0" y="52" color-interpolation-filters="sRGB" filterUnits="userSpaceOnUse"><feFlood flood-opacity="0" result="BackgroundImageFix"/><feColorMatrix in="SourceAlpha" result="hardAlpha" type="matrix" values="0 0 0 0 0 0 0 0 0 0 0 0 0 0 0 0 0 0 127 0"/><feOffset dy="4"/><feGaussianBlur stdDeviation="3"/><feColorMatrix type="matrix" values="0 0 0 0 0 0 0 0 0 0 0 0 0 0 0 0 0 0 0.1 0"/><feBlend in2="BackgroundImageFix" mode="normal" result="effect1_dropShadow_2398_3279"/><feColorMatrix in="SourceAlpha" result="hardAlpha" type="matrix" values="0 0 0 0 0 0 0 0 0 0 0 0 0 0 0 0 0 0 127 0"/><feOffset dy="2"/><feGaussianBlur stdDeviation="2"/><feColorMatrix type="matrix" values="0 0 0 0 0 0 0 0 0 0 0 0 0 0 0 0 0 0 0.06 0"/><feBlend in2="effect1_dropShadow_2398_3279" mode="normal" result="effect2_dropShadow_2398_3279"/><feBlend in="SourceGraphic" in2="effect2_dropShadow_2398_3279" mode="normal" result="shape"/></filter></defs></svg>