<svg xmlns="http://www.w3.org/2000/svg" width="280" height="220" fill="none" viewBox="0 0 280 220"><g filter="url(#filter0_dd_2159_3076)"><rect width="260" height="196" x="10" y="12" fill="#374151" rx="8"/><circle cx="39.572" cy="36.428" r="6.509" fill="#374151" stroke="#6B7280" stroke-width="3"/><rect width="182" height="10" x="64" y="31.5" fill="#9CA3AF" rx="4"/><line x1="10" x2="270" y1="60.5" y2="60.5" stroke="#4B5563"/><circle cx="39.572" cy="85.428" r="6.509" fill="#374151" stroke="#6B7280" stroke-width="3"/><rect width="182" height="10" x="64" y="80.5" fill="#9CA3AF" rx="4"/><line x1="10" x2="270" y1="109.5" y2="109.5" stroke="#4B5563"/><circle cx="39.572" cy="134.428" r="6.509" fill="#374151" stroke="#6B7280" stroke-width="3"/><rect width="182" height="10" x="64" y="129.5" fill="#9CA3AF" rx="4"/><line x1="10" x2="270" y1="158.5" y2="158.5" stroke="#4B5563"/><circle cx="39.572" cy="183.428" r="6.509" fill="#374151" stroke="#6B7280" stroke-width="3"/><rect width="182" height="10" x="64" y="178.5" fill="#9CA3AF" rx="4"/><rect width="259" height="195" x="10.5" y="12.5" stroke="#4B5563" rx="7.5"/></g><defs><filter id="filter0_dd_2159_3076" width="272" height="208" x="4" y="10" color-interpolation-filters="sRGB" filterUnits="userSpaceOnUse"><feFlood flood-opacity="0" result="BackgroundImageFix"/><feColorMatrix in="SourceAlpha" result="hardAlpha" type="matrix" values="0 0 0 0 0 0 0 0 0 0 0 0 0 0 0 0 0 0 127 0"/><feOffset dy="4"/><feGaussianBlur stdDeviation="3"/><feColorMatrix type="matrix" values="0 0 0 0 0 0 0 0 0 0 0 0 0 0 0 0 0 0 0.1 0"/><feBlend in2="BackgroundImageFix" mode="normal" result="effect1_dropShadow_2159_3076"/><feColorMatrix in="SourceAlpha" result="hardAlpha" type="matrix" values="0 0 0 0 0 0 0 0 0 0 0 0 0 0 0 0 0 0 127 0"/><feOffset dy="2"/><feGaussianBlur stdDeviation="2"/><feColorMatrix type="matrix" values="0 0 0 0 0 0 0 0 0 0 0 0 0 0 0 0 0 0 0.06 0"/><feBlend in2="effect1_dropShadow_2159_3076" mode="normal" result="effect2_dropShadow_2159_3076"/><feBlend in="SourceGraphic" in2="effect2_dropShadow_2159_3076" mode="normal" result="shape"/></filter></defs></svg>