<svg xmlns="http://www.w3.org/2000/svg" width="280" height="220" fill="none" viewBox="0 0 280 220"><g filter="url(#filter0_dd_1864_2041)"><rect width="260" height="196" x="10" y="12" fill="#fff" rx="8"/><g clip-path="url(#clip0_1864_2041)"><circle cx="39.5" cy="36.5" r="7.438" fill="#fff" stroke="#E5E7EB" stroke-width="3"/></g><rect width="182" height="10" x="64" y="31.5" fill="#D1D5DB" rx="4"/><line x1="10" x2="270" y1="60.5" y2="60.5" stroke="#E4E4E7"/><g clip-path="url(#clip1_1864_2041)"><circle cx="39.5" cy="85.5" r="7.438" fill="#fff" stroke="#E5E7EB" stroke-width="3"/></g><rect width="182" height="10" x="64" y="80.5" fill="#D1D5DB" rx="4"/><line x1="10" x2="270" y1="109.5" y2="109.5" stroke="#E4E4E7"/><g clip-path="url(#clip2_1864_2041)"><circle cx="39.5" cy="134.5" r="7.438" fill="#fff" stroke="#E5E7EB" stroke-width="3"/></g><rect width="182" height="10" x="64" y="129.5" fill="#D1D5DB" rx="4"/><line x1="10" x2="270" y1="158.5" y2="158.5" stroke="#E4E4E7"/><g clip-path="url(#clip3_1864_2041)"><circle cx="39.5" cy="183.5" r="7.438" fill="#fff" stroke="#E5E7EB" stroke-width="3"/></g><rect width="182" height="10" x="64" y="178.5" fill="#D1D5DB" rx="4"/><rect width="259" height="195" x="10.5" y="12.5" stroke="#D4D4D8" rx="7.5"/></g><defs><filter id="filter0_dd_1864_2041" width="272" height="208" x="4" y="10" color-interpolation-filters="sRGB" filterUnits="userSpaceOnUse"><feFlood flood-opacity="0" result="BackgroundImageFix"/><feColorMatrix in="SourceAlpha" result="hardAlpha" type="matrix" values="0 0 0 0 0 0 0 0 0 0 0 0 0 0 0 0 0 0 127 0"/><feOffset dy="4"/><feGaussianBlur stdDeviation="3"/><feColorMatrix type="matrix" values="0 0 0 0 0 0 0 0 0 0 0 0 0 0 0 0 0 0 0.1 0"/><feBlend in2="BackgroundImageFix" mode="normal" result="effect1_dropShadow_1864_2041"/><feColorMatrix in="SourceAlpha" result="hardAlpha" type="matrix" values="0 0 0 0 0 0 0 0 0 0 0 0 0 0 0 0 0 0 127 0"/><feOffset dy="2"/><feGaussianBlur stdDeviation="2"/><feColorMatrix type="matrix" values="0 0 0 0 0 0 0 0 0 0 0 0 0 0 0 0 0 0 0.06 0"/><feBlend in2="effect1_dropShadow_1864_2041" mode="normal" result="effect2_dropShadow_1864_2041"/><feBlend in="SourceGraphic" in2="effect2_dropShadow_1864_2041" mode="normal" result="shape"/></filter><clipPath id="clip0_1864_2041"><rect width="17" height="17" fill="#fff" transform="translate(31 28)"/></clipPath><clipPath id="clip1_1864_2041"><rect width="17" height="17" fill="#fff" transform="translate(31 77)"/></clipPath><clipPath id="clip2_1864_2041"><rect width="17" height="17" fill="#fff" transform="translate(31 126)"/></clipPath><clipPath id="clip3_1864_2041"><rect width="17" height="17" fill="#fff" transform="translate(31 175)"/></clipPath></defs></svg>