<svg xmlns="http://www.w3.org/2000/svg" width="82" height="182" fill="none" viewBox="0 0 82 182"><rect width="80.996" height="180.5" x=".502" y=".75" fill="#FAFAFA" rx="1.75"/><rect width="33" height="5" x="12.252" y="12.5" fill="#9CA3AF" rx="1"/><rect width="5" height="5" x="12.252" y="33.5" fill="#9CA3AF" rx="2.5"/><rect width="48.496" height="5" x="21.252" y="33.5" fill="#9CA3AF" rx="1"/><rect width="5" height="5" x="12.252" y="51.5" fill="#9CA3AF" rx="2.5"/><rect width="48.496" height="5" x="21.252" y="51.5" fill="#9CA3AF" rx="1"/><rect width="5" height="5" x="12.252" y="69.5" fill="#9CA3AF" rx="2.5"/><rect width="48.496" height="5" x="21.252" y="69.5" fill="#9CA3AF" rx="1"/><rect width="5" height="5" x="12.252" y="87.5" fill="#9CA3AF" rx="2.5"/><rect width="48.496" height="5" x="21.252" y="87.5" fill="#9CA3AF" rx="1"/><rect width="5" height="5" x="12.252" y="105.5" fill="#9CA3AF" rx="2.5"/><rect width="48.496" height="5" x="21.252" y="105.5" fill="#9CA3AF" rx="1"/><rect width="5" height="5" x="21.5" y="164.5" fill="#D1D5DB" rx="2.5"/><rect width="5" height="5" x="38.5" y="164.5" fill="#D1D5DB" rx="2.5"/><rect width="5" height="5" x="55.5" y="164.5" fill="#D1D5DB" rx="2.5"/><rect width="80.996" height="180.5" x=".502" y=".75" stroke="#E5E7EB" stroke-width=".5" rx="1.75"/></svg>