<svg xmlns="http://www.w3.org/2000/svg" width="82" height="182" fill="none" viewBox="0 0 82 182"><rect width="81.496" height="181" x=".252" y=".5" fill="#374151" rx="2"/><rect width="33" height="5" x="12.252" y="12.5" fill="#9CA3AF" rx="1"/><rect width="5" height="5" x="12.252" y="33.5" fill="#9CA3AF" rx="2.5"/><rect width="48.496" height="5" x="21.252" y="33.5" fill="#9CA3AF" rx="1"/><rect width="5" height="5" x="12.252" y="51.5" fill="#9CA3AF" rx="2.5"/><rect width="48.496" height="5" x="21.252" y="51.5" fill="#9CA3AF" rx="1"/><rect width="5" height="5" x="12.252" y="69.5" fill="#9CA3AF" rx="2.5"/><rect width="48.496" height="5" x="21.252" y="69.5" fill="#9CA3AF" rx="1"/><rect width="5" height="5" x="12.252" y="87.5" fill="#9CA3AF" rx="2.5"/><rect width="48.496" height="5" x="21.252" y="87.5" fill="#9CA3AF" rx="1"/><rect width="5" height="5" x="12.252" y="105.5" fill="#9CA3AF" rx="2.5"/><rect width="48.496" height="5" x="21.252" y="105.5" fill="#9CA3AF" rx="1"/><rect width="5" height="5" x="21.5" y="164.5" fill="#6B7280" rx="2.5"/><rect width="5" height="5" x="38.5" y="164.5" fill="#6B7280" rx="2.5"/><rect width="5" height="5" x="55.5" y="164.5" fill="#6B7280" rx="2.5"/></svg>