<svg xmlns="http://www.w3.org/2000/svg" width="144" height="222" fill="none" viewBox="0 0 144 222"><rect width="1" height="220.59" x="3.767" y=".705" fill="#D1D5DB" stroke="#D1D5DB" rx=".5"/><path fill="#D1D5DB" stroke="#fff" d="M7.7666 26.7097C7.7666 28.5633 6.21387 30.0913 4.2666 30.0913C2.31934 30.0913 0.766602 28.5633 0.766602 26.7097C0.766602 24.8562 2.31934 23.3281 4.2666 23.3281C6.21387 23.3281 7.7666 24.8562 7.7666 26.7097Z"/><path fill="#D1D5DB" stroke="#fff" d="M7.7666 106.282C7.7666 108.136 6.21387 109.664 4.2666 109.664C2.31934 109.664 0.766602 108.136 0.766602 106.282C0.766602 104.429 2.31934 102.901 4.2666 102.901C6.21387 102.901 7.7666 104.429 7.7666 106.282Z"/><path fill="#D1D5DB" stroke="#fff" d="M7.7666 185.855C7.7666 187.709 6.21387 189.237 4.2666 189.237C2.31934 189.237 0.766602 187.709 0.766602 185.855C0.766602 184.002 2.31934 182.474 4.2666 182.474C6.21387 182.474 7.7666 184.002 7.7666 185.855Z"/><rect width="71.704" height="4" x="17.177" y="24.703" fill="#9CA3AF" rx="2"/><rect width="46.261" height="3" x="17.177" y="31.964" fill="#D1D5DB" rx="1.5"/><rect width="126.556" height="3" x="17.177" y="40.886" fill="#D1D5DB" rx="1.5"/><rect width="121.93" height="3" x="17.177" y="46.886" fill="#D1D5DB" rx="1.5"/><rect width="102.104" height="3" x="17.177" y="52.886" fill="#D1D5DB" rx="1.5"/><rect width="71.704" height="4" x="17.177" y="104.598" fill="#9CA3AF" rx="2"/><rect width="46.261" height="3" x="17.177" y="111.859" fill="#D1D5DB" rx="1.5"/><rect width="126.556" height="3" x="17.177" y="120.781" fill="#D1D5DB" rx="1.5"/><rect width="121.93" height="3" x="17.177" y="126.781" fill="#D1D5DB" rx="1.5"/><rect width="102.104" height="3" x="17.177" y="132.781" fill="#D1D5DB" rx="1.5"/><rect width="71.704" height="4" x="17.043" y="183.612" fill="#9CA3AF" rx="2"/><rect width="46.261" height="3" x="17.043" y="190.873" fill="#D1D5DB" rx="1.5"/><rect width="126.556" height="3" x="17.043" y="199.795" fill="#D1D5DB" rx="1.5"/><rect width="121.93" height="3" x="17.043" y="205.795" fill="#D1D5DB" rx="1.5"/></svg>