<svg xmlns="http://www.w3.org/2000/svg" width="144" height="223" fill="none" viewBox="0 0 144 223"><rect width="2" height="221.59" x="3.267" y=".825" fill="#374151" rx="1"/><path fill="#374151" stroke="#111827" d="M7.7666 27.3301C7.7666 29.1836 6.21387 30.7117 4.2666 30.7117C2.31934 30.7117 0.766602 29.1836 0.766602 27.3301C0.766602 25.4765 2.31934 23.9485 4.2666 23.9485C6.21387 23.9485 7.7666 25.4765 7.7666 27.3301Z"/><path fill="#374151" stroke="#111827" d="M7.7666 106.903C7.7666 108.756 6.21387 110.284 4.2666 110.284C2.31934 110.284 0.766602 108.756 0.766602 106.903C0.766602 105.049 2.31934 103.521 4.2666 103.521C6.21387 103.521 7.7666 105.049 7.7666 106.903Z"/><path fill="#374151" stroke="#111827" d="M7.7666 186.476C7.7666 188.329 6.21387 189.857 4.2666 189.857C2.31934 189.857 0.766602 188.329 0.766602 186.476C0.766602 184.622 2.31934 183.094 4.2666 183.094C6.21387 183.094 7.7666 184.622 7.7666 186.476Z"/><rect width="71.704" height="4" x="17.177" y="25.324" fill="#D1D5DB" rx="2"/><rect width="46.261" height="3" x="17.177" y="32.584" fill="#6B7280" rx="1.5"/><rect width="126.556" height="3" x="17.177" y="41.506" fill="#6B7280" rx="1.5"/><rect width="121.93" height="3" x="17.177" y="47.506" fill="#6B7280" rx="1.5"/><rect width="102.104" height="3" x="17.177" y="53.506" fill="#6B7280" rx="1.5"/><rect width="71.704" height="4" x="17.177" y="105.219" fill="#D1D5DB" rx="2"/><rect width="46.261" height="3" x="17.177" y="112.479" fill="#6B7280" rx="1.5"/><rect width="126.556" height="3" x="17.177" y="121.401" fill="#6B7280" rx="1.5"/><rect width="121.93" height="3" x="17.177" y="127.401" fill="#6B7280" rx="1.5"/><rect width="102.104" height="3" x="17.177" y="133.401" fill="#6B7280" rx="1.5"/><rect width="71.704" height="4" x="17.043" y="184.233" fill="#D1D5DB" rx="2"/><rect width="46.261" height="3" x="17.043" y="191.494" fill="#6B7280" rx="1.5"/><rect width="126.556" height="3" x="17.043" y="200.416" fill="#6B7280" rx="1.5"/><rect width="121.93" height="3" x="17.043" y="206.416" fill="#6B7280" rx="1.5"/></svg>